<svg width="26" height="26" viewBox="0 0 26 26" fill="none" xmlns="http://www.w3.org/2000/svg">
<g clip-path="url(#clip0_1_138)">
<path d="M22.555 23.725H3.51C1.625 23.725 0.0650024 22.165 0.0650024 20.28V6.36999C0.0650024 4.48499 1.625 2.92499 3.51 2.92499H22.555C24.44 2.92499 26 4.48499 26 6.36999V20.215C26 22.165 24.44 23.725 22.555 23.725ZM3.51 4.22499C2.275 4.22499 1.3 5.19999 1.3 6.36999V20.215C1.3 21.385 2.275 22.36 3.445 22.36H22.49C23.66 22.36 24.635 21.385 24.635 20.215V6.36999C24.635 5.19999 23.66 4.22499 22.49 4.22499H3.51Z" fill="black"/>
<path d="M13 15.535C11.895 15.535 10.855 15.015 10.075 14.17L3.90002 6.75999C3.64002 6.49999 3.70502 6.10999 3.96502 5.84999C4.22502 5.58999 4.68002 5.65499 4.87502 5.91499L11.115 13.39C11.57 13.975 12.285 14.3 13 14.3C13.715 14.3 14.43 13.975 14.885 13.39L21.06 5.97999C21.32 5.71999 21.71 5.65499 21.97 5.91499C22.23 6.17499 22.295 6.56499 22.035 6.82499L15.86 14.235C15.21 15.08 14.17 15.535 13 15.535ZM23.075 20.67C22.88 20.67 22.685 20.605 22.555 20.41L18.07 15.08C17.81 14.82 17.875 14.365 18.135 14.17C18.395 13.91 18.85 13.975 19.045 14.235L23.53 19.565C23.79 19.825 23.725 20.28 23.465 20.475C23.4 20.605 23.205 20.67 23.075 20.67ZM2.92502 20.605C2.79502 20.605 2.60002 20.54 2.53502 20.475C2.27502 20.215 2.21002 19.825 2.47002 19.565L6.89002 14.3C7.15002 14.04 7.54002 13.975 7.80002 14.235C8.06002 14.495 8.12502 14.885 7.86502 15.145L3.44502 20.41C3.31502 20.54 3.12002 20.605 2.92502 20.605Z" fill="black"/>
</g>
<defs>
<clipPath id="clip0_1_138">
<rect width="26" height="26" fill="white"/>
</clipPath>
</defs>
</svg>
