<svg width="20" height="21" viewBox="0 0 20 21" fill="none" xmlns="http://www.w3.org/2000/svg">
<g clip-path="url(#clip0_1_154)">
<path d="M20 10.7328C20.0121 10.0109 19.9397 9.29022 19.7844 8.58618H10.2041V12.4828H15.8276C15.7211 13.166 15.4814 13.82 15.1229 14.4054C14.7644 14.9909 14.2945 15.4956 13.7415 15.8894L13.7219 16.0199L16.7512 18.4346L16.9609 18.4562C18.8883 16.6245 19.9996 13.9294 19.9996 10.7328" fill="#4285F4"/>
<path d="M10.2041 21C12.9591 21 15.272 20.0666 16.9615 18.4566L13.7415 15.8898C12.8799 16.5083 11.7234 16.94 10.2041 16.94C8.91372 16.9322 7.6585 16.5065 6.61651 15.7233C5.57452 14.9401 4.79867 13.8391 4.39903 12.5766L4.27945 12.5871L1.12961 15.0954L1.08844 15.2132C1.93677 16.9529 3.23867 18.4155 4.84857 19.4375C6.45846 20.4594 8.31289 21.0004 10.2045 21" fill="#34A853"/>
<path d="M4.39905 12.5766C4.17586 11.9082 4.06069 11.2067 4.05813 10.5C4.06224 9.7944 4.17316 9.0938 4.3869 8.42337L4.38121 8.28418L1.19276 5.73553L1.08846 5.78657C0.372824 7.24861 6.10352e-05 8.86285 6.10352e-05 10.4999C6.10352e-05 12.1369 0.372824 13.7511 1.08846 15.2132L4.39905 12.5766Z" fill="#FBBC05"/>
<path d="M10.2041 4.06C11.6663 4.03664 13.0804 4.59697 14.1497 5.6234L17.0296 2.73C15.1825 0.946977 12.7365 -0.0313432 10.2041 -2.00205e-06C8.31254 -0.000465105 6.45813 0.540506 4.84824 1.56242C3.23834 2.58434 1.93643 4.04691 1.08807 5.7866L4.38769 8.4234C4.79126 7.16109 5.56968 6.06096 6.61321 5.27812C7.65674 4.49528 8.91273 4.06922 10.2041 4.06Z" fill="#EB4335"/>
</g>
<defs>
<clipPath id="clip0_1_154">
<rect width="20" height="21" fill="white"/>
</clipPath>
</defs>
</svg>
