<svg width="21" height="21" viewBox="0 0 21 21" fill="none" xmlns="http://www.w3.org/2000/svg">
<g clip-path="url(#clip0_1_161)">
<path d="M16.4062 0.65625L8.27597 8.78587C7.3935 8.51836 6.46065 8.46118 5.55212 8.61893C4.64358 8.77668 3.78461 9.14497 3.04397 9.69431C2.30333 10.2436 1.70161 10.9588 1.28698 11.7824C0.872355 12.6061 0.656346 13.5154 0.65625 14.4375C0.65625 16.0039 1.27851 17.5062 2.38615 18.6138C3.49379 19.7215 4.99607 20.3438 6.5625 20.3438C7.48465 20.3436 8.39394 20.1275 9.21758 19.7128C10.0412 19.2981 10.7563 18.6963 11.3056 17.9556C11.8549 17.2149 12.2231 16.3558 12.3807 15.4473C12.5384 14.5387 12.4811 13.6058 12.2135 12.7234L13.7812 11.1562V9.84375H15.0938L20.3438 4.59375V0.65625H16.4062ZM19.0312 4.04972L14.5504 8.53125H12.4688V10.6122L11.2855 11.7948L10.729 12.3513L10.9574 13.104C11.0893 13.5384 11.1562 13.9867 11.1562 14.4375C11.1562 16.9706 9.09497 19.0312 6.5625 19.0312C4.03003 19.0312 1.96875 16.9706 1.96875 14.4375C1.96875 11.9044 4.03003 9.84375 6.5625 9.84375C7.01269 9.84375 7.46156 9.91069 7.89534 10.0419L8.64741 10.2703L9.20391 9.71381L16.9496 1.96875H19.0312V4.04972Z" fill="black"/>
<path d="M5.25 17.0625C5.97487 17.0625 6.5625 16.4749 6.5625 15.75C6.5625 15.0251 5.97487 14.4375 5.25 14.4375C4.52513 14.4375 3.9375 15.0251 3.9375 15.75C3.9375 16.4749 4.52513 17.0625 5.25 17.0625Z" fill="black"/>
<path d="M13.549 6.98709L17.4865 3.04959L17.9504 3.51356L14.0129 7.45106L13.549 6.98709Z" fill="black"/>
</g>
<defs>
<clipPath id="clip0_1_161">
<rect width="21" height="21" fill="white"/>
</clipPath>
</defs>
</svg>
