<svg width="71" height="47" viewBox="0 0 71 47" fill="none" xmlns="http://www.w3.org/2000/svg">
<path d="M6.84797 46.656C6.4213 46.656 5.9733 46.3787 5.50397 45.824C5.0773 45.312 4.67197 44.5867 4.28797 43.648C3.64797 42.112 3.19997 40.4907 2.94397 38.784C2.68797 37.12 2.55997 35.4347 2.55997 33.728C2.55997 31.8507 2.68797 30.016 2.94397 28.224C3.19997 26.432 3.4773 24.8107 3.77597 23.36C3.9893 22.336 4.2453 21.248 4.54397 20.096C4.84263 18.944 5.11997 18.0267 5.37597 17.344C5.11997 17.3867 4.71463 17.536 4.15997 17.792C3.6053 18.048 3.0293 18.304 2.43197 18.56C1.8773 18.816 1.38663 18.944 0.959967 18.944C0.319967 18.944 -3.31998e-05 18.5813 -3.31998e-05 17.856C-3.31998e-05 17.472 0.127967 17.1307 0.383967 16.832C0.682634 16.5333 1.0453 16.2987 1.47197 16.128C2.3253 15.744 3.26397 15.4667 4.28797 15.296C5.31197 15.0827 5.99463 14.8693 6.33597 14.656L7.99997 10.432C8.17063 10.0053 8.4693 9.32267 8.89597 8.384C9.3653 7.40267 9.89863 6.35733 10.496 5.248C11.136 4.13867 11.7546 3.136 12.352 2.24C12.8213 1.55733 13.2693 1.024 13.696 0.639999C14.1226 0.213333 14.592 0 15.104 0C15.872 0 16.256 0.298667 16.256 0.896C16.256 1.23733 16.1066 1.74933 15.808 2.432C15.552 3.11466 15.0613 4.01066 14.336 5.12C13.5253 6.4 12.6933 7.68 11.84 8.96C11.0293 10.1973 10.3253 11.4987 9.72797 12.864C9.6853 13.0347 9.57863 13.312 9.40797 13.696C9.27997 14.0373 9.1733 14.2507 9.08797 14.336L10.368 14.144C10.7093 14.1013 11.0933 14.08 11.52 14.08C11.9466 14.0373 12.416 14.016 12.928 14.016C13.6533 14.016 14.336 14.0587 14.976 14.144C15.6586 14.1867 16.2133 14.2933 16.64 14.464C16.8533 14.5493 17.0453 14.656 17.216 14.784C17.4293 14.8693 17.536 14.9547 17.536 15.04C17.536 15.2107 16.9813 15.296 15.872 15.296C15.232 15.296 14.3146 15.4027 13.12 15.616C11.968 15.8293 10.6453 16.1707 9.15197 16.64C8.42663 16.8533 7.93597 17.152 7.67997 17.536C7.42397 17.92 7.08263 18.8373 6.65597 20.288C6.01597 22.592 5.50397 24.8107 5.11997 26.944C4.73597 29.0347 4.4373 31.168 4.22397 33.344C4.1813 33.7707 4.13863 34.2187 4.09597 34.688C4.09597 35.1573 4.09597 35.6693 4.09597 36.224C4.09597 37.6747 4.22397 39.1893 4.47997 40.768C4.77863 42.3467 5.2053 43.712 5.75997 44.864C5.88797 45.12 6.01597 45.3547 6.14397 45.568C6.31463 45.7813 6.50663 45.9307 6.71997 46.016C7.01863 46.144 7.16797 46.2933 7.16797 46.464C7.16797 46.592 7.0613 46.656 6.84797 46.656ZM18.75 15.04C18.366 15.04 18.0886 14.848 17.918 14.464C17.79 14.0373 17.726 13.7387 17.726 13.568C17.726 12.8853 17.918 12.2453 18.302 11.648C18.7286 11.008 19.198 10.6667 19.71 10.624H19.902C20.414 10.624 20.7553 10.752 20.926 11.008C21.1393 11.2213 21.246 11.4987 21.246 11.84C21.246 12.48 20.9686 13.184 20.414 13.952C19.8593 14.6773 19.3046 15.04 18.75 15.04ZM15.486 37.952C14.0353 37.952 13.054 37.3973 12.542 36.288C12.03 35.1787 11.774 33.8987 11.774 32.448C11.774 30.9973 11.9233 29.4827 12.222 27.904C12.5633 26.2827 12.926 24.8107 13.31 23.488C13.7366 22.1653 14.0566 21.2267 14.27 20.672C14.7393 19.6907 15.2086 18.8587 15.678 18.176C16.1473 17.4507 16.6593 17.088 17.214 17.088C17.598 17.088 17.8753 17.2373 18.046 17.536C18.2593 17.792 18.366 18.1333 18.366 18.56C18.366 19.4133 18.1313 20.288 17.662 21.184C17.1926 22.0373 16.766 22.848 16.382 23.616C15.5286 25.3653 14.846 26.9227 14.334 28.288C13.8646 29.6533 13.63 31.36 13.63 33.408C13.63 34.7307 13.758 35.6907 14.014 36.288C14.3126 36.8853 14.718 37.184 15.23 37.184C15.9126 37.184 16.702 36.8 17.598 36.032C18.494 35.2213 19.4113 34.1547 20.35 32.832C21.2886 31.5093 22.1206 30.08 22.846 28.544C23.3153 27.5627 23.678 27.072 23.934 27.072C24.1046 27.072 24.19 27.2427 24.19 27.584C24.19 28.0533 23.998 28.736 23.614 29.632C23.2726 30.4853 22.846 31.36 22.334 32.256C21.8646 33.152 21.4166 33.856 20.99 34.368C20.2646 35.3067 19.4326 36.1387 18.494 36.864C17.5553 37.5893 16.5526 37.952 15.486 37.952ZM28.162 39.168C27.6073 39.168 27.202 38.976 26.946 38.592C26.7326 38.2507 26.626 37.9093 26.626 37.568C26.626 36.8853 26.9246 36.1813 27.522 35.456C27.7353 35.2 28.034 34.8587 28.418 34.432C28.802 33.9627 29.0793 33.6 29.25 33.344C28.6953 32.576 27.9486 31.872 27.01 31.232C26.0713 30.592 25.154 29.7813 24.258 28.8C23.4473 27.904 22.7646 26.816 22.21 25.536C21.6553 24.2133 21.378 22.9547 21.378 21.76C21.378 20.352 21.698 19.008 22.338 17.728C22.978 16.448 23.7673 15.3387 24.706 14.4C25.73 13.376 26.8606 12.5653 28.098 11.968C29.3353 11.328 30.6153 11.008 31.938 11.008C32.834 11.008 33.7086 11.2213 34.562 11.648C35.4153 12.0747 35.842 12.7787 35.842 13.76C35.842 14.912 35.586 15.488 35.074 15.488C34.8606 15.488 34.7113 15.2747 34.626 14.848C34.5833 14.6347 34.562 14.4213 34.562 14.208C34.562 13.952 34.562 13.7813 34.562 13.696C34.562 13.2693 34.37 12.9067 33.986 12.608C33.602 12.2667 33.1753 12.096 32.706 12.096C31.7246 12.096 30.6366 12.48 29.442 13.248C28.2473 14.016 27.2446 14.912 26.434 15.936C25.6233 17.0027 24.962 18.2187 24.45 19.584C23.938 20.9067 23.682 22.1867 23.682 23.424C23.682 24.96 24.0233 26.2827 24.706 27.392C25.3886 28.5013 26.1993 29.4827 27.138 30.336C28.1193 31.1893 28.994 32.0213 29.762 32.832C30.146 32.3627 30.5513 31.9147 30.978 31.488C31.4473 31.0613 31.874 30.72 32.258 30.464C32.5993 30.2507 32.834 30.144 32.962 30.144C33.09 30.144 33.154 30.208 33.154 30.336C33.154 30.5493 32.962 30.8053 32.578 31.104C32.4926 31.1893 32.2366 31.4453 31.81 31.872C31.426 32.256 30.9566 32.7467 30.402 33.344C30.7433 33.728 31.0206 34.1333 31.234 34.56C31.4473 34.9867 31.554 35.456 31.554 35.968C31.554 36.6507 31.17 37.3547 30.402 38.08C29.634 38.8053 28.8873 39.168 28.162 39.168ZM28.866 37.44C29.1646 37.44 29.442 37.1627 29.698 36.608C29.9966 36.096 30.146 35.584 30.146 35.072C30.146 34.816 30.1033 34.5813 30.018 34.368C29.9326 34.1547 29.8686 34.0267 29.826 33.984C29.4846 34.4107 29.1646 34.88 28.866 35.392C28.61 35.8613 28.482 36.288 28.482 36.672C28.482 37.184 28.61 37.44 28.866 37.44ZM33.961 45.696C33.5343 45.696 33.193 45.568 32.937 45.312C32.6383 45.056 32.5956 44.7573 32.809 44.416C33.4063 43.52 33.9823 42.24 34.537 40.576C35.049 38.9547 35.497 37.248 35.881 35.456C36.3076 33.664 36.649 32.0427 36.905 30.592C37.2036 29.0987 37.417 28.0533 37.545 27.456C36.777 26.7307 36.393 25.92 36.393 25.024C36.393 24.3413 36.5423 23.7653 36.841 23.296C37.1823 22.8267 37.4383 22.6133 37.609 22.656C37.6943 22.656 37.801 22.6987 37.929 22.784C38.0996 22.8267 38.185 22.8907 38.185 22.976C38.441 20.9707 38.6543 18.9867 38.825 17.024C38.9956 15.0187 39.081 13.184 39.081 11.52C39.081 10.1547 39.017 8.93867 38.889 7.872C38.761 6.80533 38.569 5.952 38.313 5.312C38.057 4.672 37.929 4.18133 37.929 3.84C37.929 3.37067 38.057 3.136 38.313 3.136C38.6116 3.136 38.8463 3.328 39.017 3.712C39.4863 4.65067 39.8276 6.12267 40.041 8.128C40.297 10.1333 40.425 12.416 40.425 14.976C40.425 16.7253 40.3823 18.5813 40.297 20.544C40.2116 22.464 40.0623 24.384 39.849 26.304C40.617 25.6213 41.4063 24.96 42.217 24.32C43.0276 23.6373 43.7316 22.9333 44.329 22.208V22.144C44.329 22.0587 44.2863 21.9733 44.201 21.888C44.1583 21.8027 44.137 21.6747 44.137 21.504C44.137 21.2053 44.3503 20.8427 44.777 20.416C45.2036 19.9893 45.7583 19.392 46.441 18.624C47.1663 17.8133 47.913 17.088 48.681 16.448C49.449 15.7653 50.153 15.4453 50.793 15.488C51.305 15.488 51.561 15.6587 51.561 16C51.561 16.384 51.1983 16.96 50.473 17.728C49.7476 18.496 48.873 19.3067 47.849 20.16C46.8676 21.0133 45.9503 21.8027 45.097 22.528C44.2863 23.2107 43.753 23.68 43.497 23.936L41.065 26.624L39.785 27.968C40.3396 29.376 40.9796 30.7627 41.705 32.128C42.4303 33.4933 43.241 34.624 44.137 35.52C45.0756 36.416 46.0356 36.864 47.017 36.864C48.041 36.864 49.0863 36.2453 50.153 35.008C50.8783 34.112 51.497 33.1093 52.009 32C52.521 30.8907 52.9476 30.0587 53.289 29.504C53.5023 29.0773 53.7156 28.8 53.929 28.672C54.1423 28.5013 54.313 28.416 54.441 28.416C54.7396 28.416 54.8463 28.6293 54.761 29.056C54.5903 29.6107 54.2916 30.3147 53.865 31.168C53.4383 32.0213 53.0116 32.832 52.585 33.6C52.201 34.3253 51.9023 34.8373 51.689 35.136C50.8783 36.3307 50.0676 37.2053 49.257 37.76C48.4463 38.3147 47.657 38.592 46.889 38.592C45.9076 38.592 44.9476 38.2293 44.009 37.504C43.0703 36.7787 42.1956 35.84 41.385 34.688C40.617 33.536 39.913 32.32 39.273 31.04C38.8036 34.2827 38.2276 37.184 37.545 39.744C36.8623 42.3467 36.1156 44.1387 35.305 45.12C34.921 45.504 34.473 45.696 33.961 45.696ZM55.2595 35.904C54.7048 35.904 54.2355 35.6267 53.8515 35.072C53.5101 34.5173 53.3608 33.6213 53.4035 32.384C53.4035 31.7867 53.5741 30.8053 53.9155 29.44C54.2568 28.032 54.6195 26.4747 55.0035 24.768C55.4301 23.0613 55.7928 21.3973 56.0915 19.776C56.4328 18.1547 56.6035 16.832 56.6035 15.808C56.6035 15.3387 56.5608 14.9547 56.4755 14.656C56.3901 14.3147 56.1768 14.144 55.8355 14.144C55.5795 14.144 55.3448 14.272 55.1315 14.528C54.9181 14.7413 54.7048 14.9547 54.4915 15.168C54.1928 15.552 54.0221 15.744 53.9795 15.744C53.9368 15.744 53.9155 15.68 53.9155 15.552C53.9155 15.04 54.1075 14.4853 54.4915 13.888C54.9181 13.248 55.4088 12.928 55.9635 12.928C56.6461 12.928 57.1368 13.2693 57.4355 13.952C57.7341 14.592 57.8835 15.5093 57.8835 16.704C57.8835 18.0267 57.7341 19.52 57.4355 21.184C57.1368 22.848 56.8168 24.4053 56.4755 25.856C56.3048 26.5387 56.1555 27.3707 56.0275 28.352C55.8995 29.3333 55.8355 30.2933 55.8355 31.232C55.8355 32.0427 55.8995 32.7253 56.0275 33.28C56.1981 33.792 56.4968 34.048 56.9235 34.048C57.2648 34.048 57.6701 33.856 58.1395 33.472C58.6515 33.0453 59.2488 32.3413 59.9315 31.36C60.9128 29.9947 61.7875 28.4373 62.5555 26.688C63.3661 24.896 64.1128 23.2747 64.7955 21.824C65.0515 21.2267 65.3715 20.928 65.7555 20.928C66.7368 20.928 67.2275 21.4613 67.2275 22.528C67.2275 23.3387 67.0995 24.3627 66.8435 25.6C66.6301 26.7947 66.5235 27.9467 66.5235 29.056C66.5235 31.0613 66.9075 32.064 67.6755 32.064C68.0595 32.064 68.4435 31.8293 68.8275 31.36C69.2541 30.848 69.4888 30.5493 69.5315 30.464C69.7875 30.1653 70.0221 30.016 70.2355 30.016C70.4915 30.016 70.6195 30.1653 70.6195 30.464C70.6195 31.0187 70.2995 31.616 69.6595 32.256C69.0195 32.896 68.3368 33.216 67.6115 33.216C66.9288 33.216 66.3741 32.9813 65.9475 32.512C65.5635 32 65.2008 31.3387 64.8595 30.528C64.4755 29.5467 64.2835 28.6933 64.2835 27.968C64.2835 27.2427 64.2408 26.5387 64.1555 25.856C63.8568 26.88 63.3448 27.968 62.6195 29.12C61.9368 30.272 61.1475 31.3813 60.2515 32.448C59.3981 33.472 58.5235 34.304 57.6275 34.944C56.7315 35.584 55.9421 35.904 55.2595 35.904Z" fill="black"/>
</svg>
