<svg width="21" height="20" viewBox="0 0 21 20" fill="none" xmlns="http://www.w3.org/2000/svg">
<path d="M10.4692 11.2308C13.5792 11.2308 16.0733 8.70769 16.0733 5.63077C16.0733 2.55385 13.5792 0 10.4692 0C7.35924 0 4.8651 2.52308 4.8651 5.6C4.8651 8.67692 7.35924 11.2308 10.4692 11.2308ZM10.4692 1.47692C12.7478 1.47692 14.5953 3.32308 14.5953 5.6C14.5953 7.87692 12.7478 9.72308 10.4692 9.72308C8.19062 9.72308 6.34311 7.90769 6.34311 5.63077C6.34311 3.35385 8.19062 1.47692 10.4692 1.47692ZM0.739003 20H20.261C20.6613 20 21 19.6615 21 19.2615C21 15.3846 17.8284 12.2154 13.9487 12.2154H7.05132C3.17155 12.2154 0 15.3846 0 19.2615C0 19.6615 0.33871 20 0.739003 20ZM7.05132 13.6923H13.9487C16.7815 13.6923 19.0909 15.7846 19.4604 18.5231H1.53959C1.90909 15.7846 4.21847 13.6923 7.05132 13.6923Z" fill="black"/>
</svg>
