<svg width="24" height="14" viewBox="0 0 24 14" fill="none" xmlns="http://www.w3.org/2000/svg">
<path d="M0.456623 0.119515C0.890989 -0.128616 1.44427 0.0220936 1.69276 0.456187L1.69744 0.464163C1.70235 0.4725 1.71073 0.486547 1.72256 0.505941C1.74623 0.544819 1.7837 0.604994 1.83495 0.683475C1.93751 0.840528 2.09485 1.07017 2.3068 1.34839C2.73155 1.90583 3.37062 2.65149 4.22177 3.39624C5.92416 4.88585 8.43936 6.34391 11.7812 6.34391C15.1232 6.34391 17.6383 4.88585 19.3407 3.39624C20.1919 2.65149 20.831 1.90583 21.2557 1.34839C21.4676 1.07017 21.625 0.840528 21.7275 0.683475C21.7788 0.604994 21.8162 0.544819 21.8399 0.505941C21.8518 0.486547 21.8601 0.4725 21.8651 0.464163L21.8694 0.456732L21.8702 0.455463C22.1189 0.0220037 22.6718 -0.128525 23.1058 0.119515C23.5405 0.367919 23.6915 0.921457 23.4431 1.356L22.6562 0.906413C23.4431 1.356 23.4433 1.35564 23.4431 1.356L23.4422 1.35763L23.4409 1.35981L23.4373 1.36597L23.4262 1.385C23.417 1.40068 23.4041 1.42225 23.3876 1.44935C23.3546 1.50345 23.3071 1.57948 23.2451 1.67455C23.1211 1.86441 22.9386 2.1303 22.6974 2.44686C22.2159 3.07878 21.4956 3.91915 20.5343 4.76033C18.6117 6.4426 15.6894 8.15641 11.7812 8.15641C7.87323 8.15641 4.95084 6.4426 3.02823 4.76033C2.06687 3.91915 1.34658 3.07878 0.865079 2.44686C0.623899 2.1303 0.441398 1.86441 0.317396 1.67455C0.255363 1.57948 0.207867 1.50345 0.174897 1.44935C0.158413 1.42225 0.145544 1.40068 0.1363 1.385L0.125144 1.36597L0.121592 1.35981L0.120332 1.35763L0.119824 1.35673C0.119607 1.35637 0.119407 1.356 0.90625 0.906413L0.119824 1.35673C-0.128497 0.922181 0.0220581 0.367919 0.456623 0.119515ZM3.35957 7.89097L1.54707 9.70347C1.19315 10.0574 0.619349 10.0574 0.265432 9.70347C-0.0884772 9.34958 -0.0884772 8.77574 0.265432 8.42185L2.07793 6.60935C2.43185 6.25546 3.00565 6.25546 3.35957 6.60935C3.71348 6.96324 3.71348 7.53708 3.35957 7.89097ZM22.0154 9.70347L20.2029 7.89097C19.849 7.53708 19.849 6.96324 20.2029 6.60935C20.5568 6.25546 21.1307 6.25546 21.4846 6.60935L23.2971 8.42185C23.6509 8.77574 23.6509 9.34958 23.2971 9.70347C22.9432 10.0574 22.3693 10.0574 22.0154 9.70347ZM6.73208 12.118C6.54621 12.5826 6.01878 12.8087 5.55407 12.6229C5.08935 12.437 4.86331 11.9096 5.04919 11.4448L5.95539 9.17921C6.14127 8.71448 6.66864 8.48846 7.13337 8.67434C7.59809 8.86021 7.82411 9.38764 7.63824 9.85237L6.73208 12.118ZM18.0085 12.6229C17.5437 12.8087 17.0163 12.5826 16.8304 12.118L15.9243 9.85237C15.7384 9.38764 15.9644 8.86021 16.4291 8.67434C16.8939 8.48846 17.4212 8.71448 17.6071 9.17921L18.5133 11.4448C18.6992 11.9096 18.4732 12.437 18.0085 12.6229ZM12.6875 12.6877C12.6875 13.1882 12.2818 13.5939 11.7812 13.5939C11.2807 13.5939 10.875 13.1882 10.875 12.6877V10.422C10.875 9.92152 11.2807 9.51579 11.7812 9.51579C12.2818 9.51579 12.6875 9.92152 12.6875 10.422V12.6877Z" fill="#B3B3B3"/>
</svg>
